<svg width="24" height="24" viewBox="0 0 24 24" fill="none" xmlns="http://www.w3.org/2000/svg">
<path d="M8.0347 11.4211V15.0677L5.864 13.9517C5.00422 13.5096 3.90444 13.7717 3.40804 14.5374C2.91176 15.303 3.2065 16.2822 4.06607 16.7243L8.36997 18.9372C9.05804 20.6398 10.7325 21.842 12.6898 21.8421H15.5992C18.4915 21.8421 20.8362 19.5093 20.8362 16.6316V11.4211H8.0347ZM21.9999 16.6316C21.9999 20.1488 19.1342 23 15.5992 23H12.6898C10.4023 22.9999 8.42737 21.6864 7.47669 19.7807L3.53192 17.7533C2.12581 17.0301 1.52369 15.3076 2.42952 13.9098C3.27916 12.5993 5.05343 12.2314 6.39816 12.9227L6.87094 13.1647V10.2632H21.9999V16.6316Z" fill="#47332F"/>
<path d="M9.19854 1C10.484 1 11.5261 2.03681 11.5261 3.31579V11.4211H10.3623V3.31579C10.3623 2.6763 9.84127 2.15789 9.19854 2.15789C8.5558 2.15789 8.03477 2.6763 8.03477 3.31579L8.03469 11.4211H6.871V3.31579C6.871 2.03681 7.91307 1 9.19854 1Z" fill="#47332F"/>
<path d="M12.6899 5.63158C13.9753 5.63158 15.0174 6.66839 15.0174 7.94737V11.4211H13.8536V7.94737C13.8536 7.30788 13.3326 6.78947 12.6899 6.78947C12.0471 6.78947 11.5261 7.30788 11.5261 7.94737V11.4211H10.3623V7.94737C10.3623 6.66839 11.4044 5.63158 12.6899 5.63158Z" fill="#47332F"/>
<path d="M16.1812 6.78947C17.4666 6.78947 18.5087 7.82629 18.5087 9.10526V11.4211H17.3449V9.10526C17.3449 8.46578 16.8239 7.94737 16.1812 7.94737C15.5384 7.94737 15.0174 8.46578 15.0174 9.10526V11.4211H13.8536V9.10526C13.8536 7.82629 14.8957 6.78947 16.1812 6.78947Z" fill="#47332F"/>
<path d="M19.6725 7.94737C20.9579 7.94737 21.9999 8.98418 21.9999 10.2632L22 11.4211H20.8362V10.2632C20.8362 9.62367 20.3152 9.10526 19.6725 9.10526C19.0297 9.10526 18.5087 9.62367 18.5087 10.2632V11.4211H17.3449V10.2632C17.3449 8.98418 18.387 7.94737 19.6725 7.94737Z" fill="#47332F"/>
<path d="M9.19855 2.15788C9.84128 2.15788 10.3623 2.67629 10.3623 3.31578V11.4211H11.5261V7.94736C11.5261 7.30787 12.0471 6.78946 12.6899 6.78946C13.3326 6.78946 13.8536 7.30787 13.8536 7.94736V11.4211H15.0174V9.10525C15.0174 8.46577 15.5384 7.94736 16.1812 7.94736C16.8239 7.94736 17.3449 8.46577 17.3449 9.10525V11.4211H18.5087V10.2632C18.5087 9.62366 19.0297 9.10525 19.6725 9.10525C20.3152 9.10525 20.8362 9.62366 20.8362 10.2632V16.6316C20.8362 19.5093 18.4915 21.8421 15.5992 21.8421H12.6898C10.7325 21.842 9.05804 20.6398 8.36997 18.9372L4.06607 16.7243C3.2065 16.2822 2.91176 15.303 3.40804 14.5374C3.90444 13.7717 5.00422 13.5096 5.864 13.9517L8.0347 15.0677L8.03478 3.31578C8.03478 2.67629 8.55581 2.15788 9.19855 2.15788Z" fill="#BDD1FF"/>
</svg>
