<svg width="385" height="77" viewBox="0 0 385 77" fill="none" xmlns="http://www.w3.org/2000/svg">
<path d="M148.522 0.0128681C149.164 -0.0327468 149.898 0.0369794 150.632 0.317788L150.998 0.47598L151.716 0.85885C152.432 1.277 153.131 1.79066 153.736 2.32843C154.466 2.97698 155.447 3.99971 155.952 5.27217C156.251 6.02473 156.87 7.4215 157.204 9.02292C157.424 10.0765 158.013 12.0432 158.041 14.9448C158.087 19.5553 157.932 23.0447 157.85 24.0855C157.701 25.9954 157.276 27.7467 157.183 28.3108C156.983 29.526 156.763 31.1683 156.336 32.6944C155.959 34.0446 155.586 35.3123 155.273 36.5254C155.137 37.0538 155.096 37.4274 154.963 38.1829C154.844 38.8533 154.655 39.7819 154.183 40.7621C154.093 40.9484 154.029 41.1774 153.886 41.8236C153.781 42.2981 153.563 43.414 152.961 44.4304C152.401 45.3749 151.959 46.1913 151.654 46.9339C151.334 47.7125 150.761 49.3653 149.726 51.0423C149.414 51.5467 149.103 52.0204 148.807 52.4637C148.837 52.54 148.868 52.6165 148.897 52.693C149.241 53.606 149.874 54.653 150.494 55.6574C150.896 56.3083 151.212 56.9211 151.461 57.4044C151.724 57.9175 151.908 58.2723 152.116 58.6103C152.512 59.2514 152.835 59.8727 153.069 60.3137C153.322 60.7915 153.497 61.1022 153.686 61.3752C154.219 62.1454 154.82 62.9065 155.63 63.7481C156.769 64.9325 157.706 65.6621 159.001 66.5726C159.489 66.9158 160.073 67.2819 160.784 67.7235C161.127 67.9362 161.497 68.1652 161.882 68.4067L163.062 69.1679L163.145 69.2206L163.223 69.2779C163.853 69.7473 163.977 69.8696 164.171 70.0001C164.182 70.003 164.193 70.0057 164.206 70.0093C166.052 70.5264 167.127 72.4388 166.608 74.2782C166.089 76.1168 164.172 77.1886 162.326 76.6717C161.972 76.5726 161.302 76.3883 160.494 75.8761C160.061 75.601 159.389 75.0714 159.141 74.8788C158.476 74.441 157.808 74.0291 157.112 73.5972C156.415 73.1647 155.669 72.6981 154.995 72.224C153.492 71.1671 152.171 70.1515 150.616 68.5351C149.531 67.407 148.696 66.3564 147.968 65.3048C147.527 64.6679 147.191 64.0405 146.93 63.5486C146.649 63.0202 146.451 62.6395 146.203 62.2372C145.827 61.6283 145.522 61.0268 145.282 60.5613C145.027 60.0659 144.823 59.6764 144.58 59.2843C144.468 59.1024 144.338 58.8885 144.194 58.6516C143.721 59.1832 143.193 59.7097 142.618 60.1487C142.301 60.39 141.848 60.8236 140.878 61.7031C140.009 62.4909 138.902 63.4661 137.583 64.4542C133.168 67.7622 130.523 69.0296 129 69.5622C127.191 70.1948 125.208 69.2461 124.573 67.4438C123.938 65.6412 124.89 63.6657 126.699 63.0328C127.334 62.811 129.346 61.969 133.409 58.9244C134.476 58.1251 135.401 57.3149 136.205 56.5859C136.907 55.9487 137.768 55.1331 138.398 54.6532C138.861 54.2998 139.474 53.537 140.172 52.5256C140.435 52.1439 140.67 51.8303 140.901 51.5329C140.814 51.3397 140.731 51.149 140.646 50.9644C140.283 50.1798 139.991 49.3271 139.767 48.6511C139.516 47.8953 139.349 47.3687 139.175 46.9316C138.896 46.231 138.689 45.499 138.536 44.9622C138.362 44.3548 138.249 43.961 138.124 43.6371C137.627 42.3466 137.246 41.1658 136.925 39.9414C136.809 39.5008 136.671 39.0441 136.513 38.5199C136.365 38.0263 136.194 37.4518 136.057 36.8991C135.894 36.2366 135.445 34.8015 135.257 33.0772C135.206 32.6146 135.125 32.2456 134.978 31.4426C134.841 30.6906 134.694 29.7776 134.612 28.5814C134.493 26.829 134.44 24.6362 134.454 22.6664C134.466 20.793 134.539 18.8058 134.75 17.6272C135.013 16.1663 135.443 14.6434 135.896 13.2161C136.24 12.1346 136.694 10.5888 137.859 9.02063C138.187 8.57999 138.418 8.17307 138.812 7.52583C139.152 6.96595 139.672 6.12761 140.429 5.38909C141.062 4.77182 141.632 4.26846 142.107 3.85303C142.607 3.41597 142.936 3.13231 143.225 2.85115C144.01 2.08766 145.751 0.373811 148.209 0.0449649L148.522 0.0128681ZM148.75 7.19569C148.566 7.34495 148.346 7.53775 148.076 7.80094C147.621 8.24351 147.117 8.67799 146.688 9.05272C146.235 9.44931 145.78 9.85335 145.287 10.3343C145.213 10.4064 145.08 10.5723 144.751 11.1138C144.473 11.5695 144.013 12.3658 143.439 13.1382C143.059 13.6494 142.895 14.1146 142.516 15.3047C142.101 16.6113 141.773 17.8107 141.587 18.8469C141.495 19.3612 141.409 20.7797 141.396 22.7122C141.383 24.5502 141.436 26.5682 141.541 28.1137C141.599 28.9646 141.701 29.6039 141.81 30.2046C141.91 30.754 142.074 31.5399 142.16 32.3275C142.282 33.4459 142.516 34.0909 142.802 35.2484C142.89 35.6053 143.009 36.0164 143.165 36.5345C143.312 37.0221 143.491 37.6061 143.644 38.1898C143.898 39.1588 144.199 40.0977 144.608 41.1588C144.868 41.8325 145.069 42.5555 145.216 43.0708C145.3 43.3678 145.371 43.6168 145.439 43.832C145.768 43.0939 146.14 42.3782 146.52 41.7067L146.953 40.9616C146.957 40.941 147.004 40.7909 147.105 40.3357C147.221 39.8102 147.429 38.7926 147.924 37.7657C147.974 37.6625 148.032 37.4923 148.122 36.9862C148.196 36.5651 148.323 35.6812 148.547 34.8082C148.883 33.5036 149.303 32.0678 149.647 30.8373C149.941 29.7866 150.082 28.7057 150.331 27.192C150.562 25.7877 150.803 25.1211 150.927 23.5468C150.988 22.7646 151.141 19.4866 151.097 15.0113C151.077 12.9842 150.723 11.9558 150.404 10.4283C150.231 9.59733 149.937 8.93233 149.537 7.92933C149.531 7.92167 149.526 7.91143 149.518 7.90182C149.438 7.80233 149.303 7.65944 149.113 7.49144C148.995 7.38652 148.872 7.28781 148.75 7.19569Z" fill="#D7C9BA"/>
<path d="M179.185 21.7159C180.761 21.3998 182.761 21.3292 185.561 21.6884C187.81 21.977 189.887 22.2664 191.947 23.064C192.372 23.228 195.958 23.9331 197.754 27.4269C197.837 27.5884 197.955 27.7773 198.166 28.1032C198.35 28.3864 198.638 28.8202 198.896 29.2816C199.452 30.2765 200.031 31.6609 199.961 33.4428C199.89 35.2572 199.773 36.8023 199.471 38.0624C199.134 39.4661 198.519 40.7201 197.363 41.7352C195.871 43.0453 194.311 44.0822 192.761 44.7867C191.127 45.5295 189.411 45.8322 188.369 46.0339C186.936 46.3112 184.89 46.7166 183.368 46.8386C181.951 46.9522 180.113 46.9683 178.649 47.0083C176.993 47.0535 175.85 47.1298 175.269 47.2628C174.225 47.5017 173.109 47.703 172.211 47.7763C172.257 47.8966 172.311 48.0246 172.363 48.1661C172.574 48.7434 172.968 49.3943 173.66 50.4083C174.166 51.149 174.662 51.5612 175.724 52.6298C176.251 53.1591 177.125 53.6294 178.32 54.2186C179.121 54.6137 179.93 54.9316 181.286 55.1609C183.054 55.4597 183.924 55.3396 184.335 55.2434C184.553 55.1923 184.74 55.1256 184.979 55.0256C185.114 54.9693 185.695 54.7066 186.192 54.5556C186.585 54.4358 187.162 54.1072 187.853 53.3887L187.897 53.3428L187.941 53.2993C188.307 52.9449 188.608 52.6438 188.84 52.3914C189.035 52.1794 189.127 52.0588 189.158 52.0177C189.229 51.8894 189.322 51.714 189.418 51.5637C189.647 51.206 189.933 50.8265 190.32 50.3716C191.558 48.9142 193.748 48.7327 195.212 49.9658C196.675 51.1999 196.86 53.3837 195.621 54.8422C195.366 55.1428 195.285 55.2669 195.274 55.2847C195.271 55.2897 195.268 55.2911 195.26 55.3053C195.252 55.3195 195.246 55.333 195.226 55.3718C195.208 55.4046 195.178 55.4637 195.143 55.5277L195.088 55.6263L195.025 55.7226C194.451 56.6192 193.499 57.5666 192.777 58.2651C191.56 59.5092 190.037 60.6209 188.217 61.1745C188.202 61.1799 188.172 61.1918 188.12 61.2134C187.803 61.3449 188.087 61.2286 187.662 61.406C187.242 61.5817 186.664 61.8059 185.925 61.9792C184.419 62.3318 182.589 62.398 180.124 61.9815C178.016 61.6252 176.564 61.0734 175.239 60.4202C174.236 59.9257 172.273 58.987 170.793 57.4994C170.115 56.8169 168.896 55.7289 167.919 54.2988C167.243 53.3083 166.379 52.0162 165.837 50.5343C165.693 50.1393 165.035 48.7445 164.719 47.2398L164.622 46.6827C164.617 46.6677 164.593 46.5856 164.525 46.3801C164.418 46.0511 164.248 45.5312 164.111 44.8624C163.83 43.4895 163.738 41.7607 164.058 39.305C164.299 37.456 164.561 36.0524 165.004 34.612C165.302 33.6422 165.752 32.0405 166.907 30.483C167.656 29.472 168.942 27.4754 170.651 26.0238C173.069 23.9693 174.863 23.1477 176.484 22.594C176.73 22.5098 176.57 22.5483 177.275 22.2753C177.77 22.0841 178.392 21.875 179.185 21.7159ZM184.675 28.5503C182.395 28.2578 181.19 28.3728 180.557 28.4998C179.696 28.6726 179.978 28.7153 178.736 29.1395C177.866 29.4369 176.853 29.8483 175.156 31.29C174.244 32.0653 173.662 33.0146 172.491 34.5937C172.149 35.0558 171.988 35.5218 171.645 36.6387C171.36 37.565 171.16 38.5472 170.945 40.1946C170.909 40.4693 170.882 40.7241 170.86 40.9603C171.089 40.9129 171.328 40.8892 171.571 40.8892C171.587 40.8885 171.637 40.8846 171.728 40.8755C171.852 40.863 172.017 40.8428 172.22 40.8113C172.628 40.7479 173.141 40.6488 173.713 40.5178C175.091 40.2026 176.953 40.1325 178.458 40.0914C180.155 40.0451 181.638 40.0365 182.812 39.9424C183.854 39.8587 185.451 39.5512 187.043 39.2431C188.258 39.0081 189.128 38.8319 189.878 38.4911C190.68 38.1264 191.634 37.5189 192.665 36.6295C192.677 36.5901 192.698 36.5332 192.717 36.453C192.846 35.9187 192.951 34.9799 193.021 33.1745C193.024 33.1147 193.031 33.0131 192.828 32.6495C192.706 32.4321 192.567 32.2174 192.333 31.8563C192.127 31.538 191.836 31.0862 191.576 30.5816C191.443 30.3227 191.325 30.2344 191.137 30.1368C191.001 30.0667 190.823 29.9946 190.536 29.8961C190.377 29.8414 190.256 29.8011 190.053 29.7333C189.877 29.6746 189.658 29.6007 189.432 29.5132C188.267 29.0621 186.991 28.8473 184.675 28.5503Z" fill="#D7C9BA"/>
<path d="M110.774 21.4476C111.193 21.4476 111.918 21.4431 112.541 21.5187C112.906 21.5632 113.199 21.6277 113.397 21.6746C113.443 21.6855 113.488 21.6947 113.519 21.7021C113.528 21.7045 113.536 21.7094 113.544 21.7113C114.173 21.7815 116.033 21.9257 117.543 22.7338C118.166 23.0676 120.084 23.8779 121.492 25.6202C122.195 26.4909 123.21 27.7026 123.922 29.1142C124.007 29.2833 124.113 29.4715 124.278 29.7607C124.429 30.0246 124.629 30.3718 124.821 30.7466C125.213 31.5105 125.652 32.5292 125.838 33.7751C125.848 33.8408 125.874 33.9604 125.951 34.2451C126.015 34.4826 126.133 34.901 126.234 35.3227C126.458 36.2518 126.658 37.4129 126.648 38.9083C126.606 45.5397 126.484 47.4245 126.186 49.0716C125.982 50.1964 125.606 52.0662 124.713 53.5972C124.026 54.775 123.017 56.2915 121.678 57.5773C120.545 58.6648 119.103 60.216 116.234 61.477C116.111 61.5314 114.781 62.2353 113.68 62.5569C112.283 62.9646 110.694 63.081 108.638 62.832C108.339 62.7958 107.962 62.7742 107.442 62.7517C106.965 62.7311 106.346 62.7079 105.748 62.6623C104.691 62.5816 102.887 62.3924 101.388 61.4197C100.458 60.8162 99.5352 60.2275 98.7806 59.6819C98.0338 59.1419 97.1997 58.4706 96.5417 57.6116C95.9593 56.8514 94.6799 55.3686 93.9139 53.4138C93.6807 52.8184 93.3663 52.1663 92.9291 51.1716C92.5522 50.3142 92.0869 49.2027 91.8246 48.1408C91.3765 46.3264 90.9725 42.487 91.4495 39.6741C91.8515 37.3044 92.7561 34.0578 93.7483 32.1542C94.7764 30.1816 95.6509 27.5539 98.2882 25.4643C100.887 23.4052 105.114 21.8612 109.416 21.7228C109.833 21.5462 110.292 21.4476 110.774 21.4476ZM111.33 28.376C110.931 28.5354 110.498 28.628 110.042 28.6282C106.928 28.6282 103.979 29.7943 102.609 30.8795C101.495 31.7629 101.559 32.1804 99.9104 35.3433C99.3855 36.3504 98.6373 38.8096 98.2951 40.8273C98.1692 41.5699 98.1445 42.6675 98.2191 43.8467C98.2934 45.0189 98.4484 46.0092 98.5666 46.4878C98.6723 46.9156 98.9174 47.5467 99.2914 48.3976C99.6052 49.1113 100.084 50.1346 100.382 50.8965C100.701 51.7113 101.176 52.2568 102.062 53.4138C102.099 53.4628 102.279 53.6631 102.86 54.0833C103.422 54.4893 104.125 54.9405 105.115 55.5827C105.139 55.5912 105.196 55.6104 105.295 55.6331C105.52 55.6847 105.837 55.73 106.28 55.7638C106.729 55.7981 107.184 55.813 107.743 55.8371C108.258 55.8594 108.879 55.8909 109.476 55.9632C110.821 56.1262 111.43 56.0038 111.726 55.9174C111.899 55.867 112.072 55.7961 112.327 55.6744C112.482 55.6001 113.04 55.3192 113.431 55.1471C115.012 54.4522 115.631 53.7729 116.857 52.5954C117.539 51.9407 118.172 51.0372 118.707 50.1193C118.921 49.7524 119.143 48.991 119.352 47.8427C119.525 46.8888 119.661 45.6196 119.704 38.8648C119.709 38.0503 119.606 37.4571 119.481 36.9367C119.408 36.6336 119.342 36.4021 119.244 36.0357C119.158 35.7166 119.042 35.2773 118.97 34.7976C118.937 34.5792 118.85 34.3114 118.636 33.8944C118.526 33.6785 118.402 33.4608 118.24 33.1768C118.093 32.9183 117.897 32.575 117.718 32.2207C117.407 31.6047 116.928 31.0048 116.082 29.9579C115.969 29.8177 115.822 29.6894 115.56 29.5269C115.418 29.4394 115.254 29.3468 115.033 29.2311C114.863 29.1424 114.509 28.9624 114.257 28.8276C114.271 28.8351 114.187 28.788 113.866 28.7313C113.71 28.7038 113.531 28.6795 113.298 28.6511C113.096 28.6265 112.78 28.5918 112.506 28.5548L112.368 28.5319C112.212 28.5043 112.077 28.4732 111.986 28.4516C111.941 28.4409 111.895 28.4317 111.864 28.4241C111.83 28.4159 111.808 28.4087 111.786 28.4035C111.745 28.3938 111.725 28.3895 111.715 28.3874C111.706 28.3857 111.699 28.3852 111.699 28.3852C111.634 28.3774 111.525 28.3789 111.33 28.376Z" fill="#D7C9BA"/>
<path d="M68.872 21.4725C70.218 21.3923 71.9066 21.4766 73.5178 22.1649C75.2319 22.8971 77.0364 24.131 78.3568 25.8812C79.3404 27.1852 80.1408 28.7973 80.5336 29.4761C81.4583 31.0745 82.3222 33.6898 82.5539 35.6616C82.7768 37.5592 81.4141 39.2772 79.5096 39.4995C77.6051 39.7215 75.8807 38.3639 75.6577 36.4663C75.5313 35.3899 74.9528 33.6815 74.5187 32.9311C73.7522 31.6063 73.4562 30.8987 72.8068 30.0378C72.3456 29.4265 71.598 28.8734 70.7819 28.5246C70.5544 28.4274 70.0775 28.3307 69.2862 28.3779C68.5285 28.4231 67.7129 28.5847 66.9622 28.7791C66.8023 28.8206 66.536 28.9257 66.0602 29.1712C65.8311 29.2893 64.8376 29.8315 64.3873 30.0561C64.3002 30.0997 64.1565 30.196 63.9248 30.4688C63.6559 30.7854 63.4249 31.1403 63.009 31.7618C62.2494 32.8972 61.6927 33.7431 61.3293 34.5313C60.8674 35.533 60.631 36.147 60.5469 37.0853C60.401 38.7168 60.3852 41.0144 60.4572 43.0783C60.4928 44.0984 60.549 45.0164 60.6137 45.7217C60.6737 46.3769 60.7242 46.6378 60.7195 46.6479L60.6965 46.5883C61.0616 47.6797 61.404 48.6977 61.7849 49.7109C61.9406 50.1252 62.3355 50.6798 63.3887 51.7742C64.0458 52.457 64.8388 53.0599 65.837 53.723C66.777 54.3474 67.2903 54.624 68.2784 54.7501C70.1557 54.9897 70.9983 54.8049 71.341 54.6928C71.8545 54.5247 71.659 54.5173 72.7446 53.888C73.5511 53.4205 74.1707 52.9312 74.6338 52.4208C74.8323 52.0699 75.0057 51.7514 75.163 51.4464C75.3086 51.1639 75.4993 50.7942 75.6853 50.4606L75.6968 50.4376C75.7064 50.4175 75.7151 50.3951 75.7337 50.3551C75.7674 50.2824 75.8239 50.1638 75.8924 50.0272C76.0402 49.7331 76.2239 49.4066 76.4838 49.0162C77.544 47.4244 79.6997 46.9903 81.2975 48.0464C82.8948 49.1028 83.3307 51.2507 82.2709 52.8426C82.1682 52.9968 82.1251 53.0781 82.1029 53.1223C82.0867 53.1546 82.0713 53.1891 82.0385 53.2599C82.0113 53.3185 81.9533 53.4394 81.8889 53.5671L81.8406 53.6657L81.7853 53.7597C81.6892 53.9239 81.5829 54.1348 81.339 54.6079C81.1189 55.0347 80.8375 55.5719 80.4738 56.1921L80.3334 56.4306L80.1585 56.6415C79.0001 58.0469 77.594 59.0796 76.2353 59.8672C76.2158 59.881 74.9271 60.8013 73.5086 61.2657C71.9088 61.7893 69.9678 61.9399 67.3971 61.6119C64.8696 61.2894 63.3038 60.3557 61.9851 59.4798C60.8111 58.7 59.5418 57.7737 58.3771 56.5635C57.347 55.4932 55.9932 54.03 55.2822 52.1388C54.8494 50.9874 54.4677 49.8486 54.1087 48.7755C53.8693 48.0596 53.762 47.0639 53.6968 46.3522C53.6173 45.4844 53.5561 44.4309 53.5173 43.319C53.4405 41.1181 53.4482 38.5035 53.6301 36.4709C53.8201 34.3481 54.4504 32.8777 55.0199 31.6426C55.6546 30.266 56.5423 28.9535 57.2312 27.924C57.8015 27.0714 59.0261 24.9921 61.2786 23.8683C61.9148 23.551 62.0103 23.4686 62.8664 23.0269C63.4746 22.713 64.2921 22.3216 65.2157 22.0823C66.1968 21.8282 67.4927 21.5547 68.872 21.4725Z" fill="#D7C9BA"/>
<path d="M38.1938 58.3624C38.1938 55.9063 38.1939 53.1615 38.2421 51.6175L38.2444 51.5373L38.2513 51.457C38.3133 50.6599 38.3637 49.2639 38.44 47.571C38.5132 45.9484 38.609 44.107 38.7552 42.6166L38.7714 42.447L38.8036 42.2796C38.8869 41.8601 38.9422 41.2926 39.0153 40.1337C39.0849 39.028 39.1674 37.5034 39.3374 35.4155C39.5508 32.7946 39.822 29.0969 40.2026 27.1528C40.3533 26.3834 40.4672 25.7236 40.5408 25.2041C40.5775 24.945 40.6014 24.733 40.6168 24.569C40.6244 24.4881 40.6302 24.4238 40.6329 24.3764C40.6355 24.3299 40.6352 24.3076 40.6352 24.3076C40.6352 22.397 42.1898 20.8481 44.1074 20.8481C46.025 20.8481 47.5797 22.397 47.5797 24.3076C47.5797 25.3143 47.3304 26.8843 47.0182 28.478C46.734 29.9295 46.4957 33.067 46.2589 35.9749C46.0956 37.9804 46.019 39.407 45.9459 40.567C45.8822 41.5784 45.8097 42.5121 45.656 43.3824C45.5346 44.6557 45.4494 46.287 45.3776 47.8805C45.311 49.3581 45.248 50.8706 45.1797 51.8307L45.182 51.833C45.1381 53.2408 45.1383 55.8467 45.1383 58.3624C45.1381 60.2729 43.5836 61.822 41.666 61.822C39.7485 61.822 38.1939 60.2729 38.1938 58.3624Z" fill="#D7C9BA"/>
<path d="M44.0894 7.24383C44.1876 7.21124 45.2887 6.77403 46.5469 6.9733C47.6878 7.15427 48.5832 7.75162 49.1862 8.38785L49.4255 8.66068L49.8052 9.12608L50.003 9.69236C50.495 11.0903 50.6517 12.2841 50.6542 13.168L50.6565 13.8191L50.4195 14.4267C50.0582 15.3569 49.4229 15.9183 49.2069 16.1094C49.0716 16.2291 48.9314 16.345 48.8318 16.4258C48.7169 16.5192 48.6177 16.5996 48.4982 16.6987C48.0118 17.1016 47.4462 17.3448 46.8645 17.4438C46.3097 17.818 45.6405 18.0375 44.9201 18.0375C44.9115 18.0376 44.8625 18.0388 44.8073 18.0375C44.7442 18.0361 44.6469 18.0323 44.5312 18.0215C44.2934 17.9993 43.9544 17.9438 43.5717 17.8014C42.7211 17.4847 42.1388 16.9207 41.7746 16.3846C41.2882 15.6685 41.1434 14.92 41.0889 14.6146C41.0154 14.2029 40.9828 13.7842 40.9692 13.4133C40.9419 12.6628 40.9798 11.8035 41.0544 10.9533C41.1493 9.87299 41.624 8.77168 42.6214 7.99123C43.348 7.42266 44.2591 7.18748 44.0894 7.24383Z" fill="#D7C9BA"/>
<path d="M289.146 58.3624C289.146 55.9063 289.146 53.1615 289.195 51.6175L289.197 51.5373L289.204 51.457C289.266 50.6599 289.316 49.2639 289.393 47.571C289.466 45.9484 289.562 44.107 289.708 42.6166L289.724 42.447L289.756 42.2796C289.839 41.8601 289.895 41.2926 289.968 40.1337C290.038 39.028 290.12 37.5034 290.29 35.4155C290.503 32.7946 290.775 29.0969 291.155 27.1528C291.306 26.3834 291.42 25.7236 291.493 25.2041C291.53 24.945 291.554 24.733 291.569 24.569C291.577 24.4881 291.583 24.4238 291.585 24.3764C291.588 24.3299 291.588 24.3076 291.588 24.3076C291.588 22.397 293.142 20.8481 295.06 20.8481C296.978 20.8481 298.532 22.397 298.532 24.3076C298.532 25.3143 298.283 26.8843 297.971 28.478C297.687 29.9295 297.448 33.067 297.211 35.9749C297.048 37.9804 296.972 39.407 296.899 40.567C296.835 41.5784 296.762 42.5121 296.609 43.3824C296.487 44.6557 296.402 46.287 296.33 47.8805C296.264 49.3581 296.201 50.8706 296.132 51.8307L296.135 51.833C296.091 53.2408 296.091 55.8467 296.091 58.3624C296.091 60.2729 294.536 61.822 292.619 61.822C290.701 61.822 289.147 60.2729 289.146 58.3624Z" fill="#D7C9BA"/>
<path d="M295.042 7.24383C295.14 7.21124 296.241 6.77403 297.5 6.9733C298.641 7.15427 299.536 7.75162 300.139 8.38785L300.378 8.66068L300.758 9.12608L300.956 9.69236C301.448 11.0903 301.604 12.2841 301.607 13.168L301.609 13.8191L301.372 14.4267C301.011 15.3569 300.376 15.9183 300.16 16.1094C300.024 16.2291 299.884 16.345 299.785 16.4258C299.67 16.5192 299.57 16.5996 299.451 16.6987C298.965 17.1016 298.399 17.3448 297.817 17.4438C297.262 17.818 296.593 18.0375 295.873 18.0375C295.864 18.0376 295.815 18.0388 295.76 18.0375C295.697 18.0361 295.6 18.0323 295.484 18.0215C295.246 17.9993 294.907 17.9438 294.524 17.8014C293.674 17.4847 293.092 16.9207 292.727 16.3846C292.241 15.6685 292.096 14.92 292.042 14.6146C291.968 14.2029 291.936 13.7842 291.922 13.4133C291.895 12.6628 291.933 11.8035 292.007 10.9533C292.102 9.87299 292.577 8.77168 293.574 7.99123C294.301 7.42266 295.212 7.18748 295.042 7.24383Z" fill="#D7C9BA"/>
<path d="M7.64672e-06 58.3452C7.37397e-06 56.457 -0.00175316 54.4898 0.0483291 53.3221L0.0529311 53.2212L0.0644363 53.1226C0.202923 51.7525 0.257987 49.9408 0.50163 46.9417C0.525605 45.2579 0.580719 43.7766 0.63509 42.1959C0.69088 40.5739 0.744731 38.8102 0.768549 36.5148C0.813068 32.2234 0.814569 24.2177 0.814569 20.15V15.9132C0.814569 14.0025 2.36919 12.4536 4.28681 12.4536C6.20408 12.454 7.75905 14.0028 7.75905 15.9132V20.15C7.75905 24.201 7.75802 32.2522 7.71303 36.5881C7.68837 38.9635 7.63148 40.7892 7.57497 42.4321C7.5183 44.0796 7.4633 45.509 7.44151 47.1526L7.43921 47.2718L7.43001 47.3887C7.23851 49.7229 7.11253 52.2609 6.98821 53.6178L6.94909 55.6101C6.94362 56.4233 6.94449 57.3602 6.94449 58.3452C6.94449 60.2559 5.38987 61.8048 3.47225 61.8048C1.55463 61.8048 7.64672e-06 60.2559 7.64672e-06 58.3452Z" fill="#D7C9BA"/>
<path d="M19.5574 20.0656C23.1459 20.0276 25.1184 22.4286 25.9542 23.4426C26.7129 24.363 27.1281 25.3232 27.3923 26.0769C27.5224 26.4479 27.6285 26.8081 27.7099 27.0856C27.7986 27.3882 27.8588 27.5927 27.9239 27.7872C28.2171 28.6635 28.3657 29.5835 28.4669 30.2174C28.5862 30.9642 28.6533 31.4009 28.7523 31.7672C28.9842 32.6257 29.0815 33.5811 29.1526 34.4129C29.2354 35.3805 29.285 36.2159 29.3988 37.4208C30.0147 43.9414 28.9324 46.9372 28.865 48.0884V48.1182L28.8627 48.148C28.6409 51.0508 28.4648 54.9655 28.3266 57.8688L28.3243 57.9055L28.322 57.9445C28.292 58.3717 28.232 58.9458 28.0159 59.5791C27.8002 60.211 27.4948 60.7047 27.252 61.0693C26.1918 62.6612 24.0384 63.0952 22.4405 62.0391C20.8798 61.0075 20.4284 58.937 21.3959 57.3576C21.5307 54.5189 21.7103 50.586 21.9366 47.623C22.1503 44.1557 23.0615 44.1816 22.4843 38.0696C22.373 36.8913 22.2944 35.7125 22.2335 34.9998C22.1609 34.152 22.0973 33.7591 22.0448 33.5646C21.8267 32.7574 21.7003 31.8723 21.6099 31.3064C21.5015 30.6276 21.4244 30.241 21.3361 29.9766C21.2202 29.6304 21.1185 29.2798 21.0438 29.0252C20.9615 28.7447 20.901 28.5413 20.8367 28.358C20.7126 28.004 20.6281 27.8838 20.5882 27.8353C20.1932 27.3561 19.9916 27.156 19.8335 27.0466C19.7777 27.0081 19.7489 26.9987 19.7414 26.9962C19.7414 26.9962 19.7102 26.9839 19.631 26.9847C15.0152 27.0337 14.7548 27.3047 14.6125 27.3814C13.5245 27.9674 13.0079 28.3012 12.6037 28.7661C11.5455 29.9837 10.9592 30.427 9.85626 32.3059C9.42383 33.0426 8.96303 33.7488 8.593 34.3097C8.17766 34.9393 7.95473 35.2751 7.84747 35.4629C6.89918 37.1232 4.77855 37.7027 3.11197 36.7582C1.44529 35.8134 0.8614 33.7006 1.80959 32.04C2.06039 31.6008 2.47106 30.9917 2.78982 30.5085C3.15364 29.957 3.52852 29.3802 3.8621 28.812C5.38479 26.2182 6.60702 25.0961 7.35275 24.2382C8.67155 22.7207 10.2266 21.8805 11.3105 21.2967C13.21 20.2736 15.2468 20.1113 19.5574 20.0656Z" fill="#D7C9BA"/>
<path d="M227.342 59.7288C227.342 57.8406 227.34 55.8734 227.39 54.7057L227.395 54.6048L227.406 54.5062C227.545 53.1361 227.6 51.3244 227.843 48.3253C227.867 46.6415 227.923 45.1602 227.977 43.5795C228.033 41.9575 228.087 40.1938 228.11 37.8984C228.155 33.607 228.156 25.6013 228.156 21.5336V17.2968C228.156 15.3861 229.711 13.8372 231.629 13.8372C233.546 13.8376 235.101 15.3864 235.101 17.2968V21.5336C235.101 25.5846 235.1 33.6358 235.055 37.9717C235.03 40.3471 234.973 42.1728 234.917 43.8157C234.86 45.4632 234.805 46.8926 234.783 48.5362L234.781 48.6554L234.772 48.7723C234.58 51.1065 234.454 53.6445 234.33 55.0014L234.291 56.9937C234.285 57.8069 234.286 58.7438 234.286 59.7288C234.286 61.6395 232.732 63.1884 230.814 63.1884C228.896 63.1884 227.342 61.6395 227.342 59.7288Z" fill="#D7C9BA"/>
<path d="M246.899 21.4492C250.488 21.4112 252.46 23.8122 253.296 24.8262C254.055 25.7466 254.47 26.7068 254.734 27.4605C254.864 27.8315 254.97 28.1917 255.052 28.4692C255.141 28.7718 255.201 28.9763 255.266 29.1708C255.559 30.0471 255.708 30.9671 255.809 31.601C255.928 32.3479 255.995 32.7845 256.094 33.1508C256.326 34.0093 256.423 34.9647 256.495 35.7965C256.577 36.7641 256.627 37.5995 256.741 38.8044C257.357 45.325 256.274 48.3208 256.207 49.472V49.5018L256.205 49.5316C255.983 52.4344 255.807 56.3491 255.669 59.2524L255.666 59.2891L255.664 59.3281C255.634 59.7553 255.574 60.3294 255.358 60.9627C255.142 61.5946 254.837 62.0883 254.594 62.4529C253.534 64.0448 251.38 64.4788 249.783 63.4227C248.222 62.3911 247.77 60.3206 248.738 58.7412C248.873 55.9025 249.052 51.9696 249.279 49.0066C249.492 45.5393 250.403 45.5652 249.826 39.4532C249.715 38.2749 249.636 37.0962 249.575 36.3834C249.503 35.5356 249.439 35.1427 249.387 34.9482C249.169 34.141 249.042 33.2559 248.952 32.69C248.843 32.0112 248.766 31.6246 248.678 31.3602C248.562 31.014 248.46 30.6634 248.386 30.4088C248.303 30.1283 248.243 29.9249 248.179 29.7416C248.055 29.3876 247.97 29.2674 247.93 29.2189C247.535 28.7397 247.334 28.5396 247.175 28.4303C247.12 28.3917 247.091 28.3823 247.083 28.3798C247.083 28.3798 247.052 28.3675 246.973 28.3683C242.357 28.4173 242.097 28.6883 241.954 28.765C240.866 29.351 240.35 29.6848 239.946 30.1497C238.887 31.3673 238.301 31.8107 237.198 33.6896C236.766 34.4262 236.305 35.1324 235.935 35.6933C235.52 36.3229 235.297 36.6587 235.189 36.8465C234.241 38.5068 232.121 39.0863 230.454 38.1418C228.787 37.197 228.203 35.0842 229.152 33.4236C229.402 32.9844 229.813 32.3754 230.132 31.8921C230.496 31.3406 230.87 30.7638 231.204 30.1956C232.727 27.6018 233.949 26.4797 234.695 25.6218C236.014 24.1043 237.569 23.2641 238.652 22.6803C240.552 21.6572 242.589 21.4949 246.899 21.4492Z" fill="#D7C9BA"/>
<path d="M270.065 20.7556C273.684 20.7217 275.738 22.8931 276.729 23.9676C277.568 24.8772 278.037 25.8408 278.34 26.6133C278.487 26.9889 278.608 27.3517 278.699 27.6266C278.798 27.9289 278.861 28.1261 278.931 28.3121C279.267 29.2095 279.438 30.1473 279.55 30.7744C279.684 31.5234 279.751 31.9301 279.854 32.2692C280.122 33.1558 280.233 34.1359 280.312 34.9608C280.405 35.935 280.459 36.7414 280.586 37.9366C281.27 44.4161 280.062 47.5739 279.997 48.5653L279.992 48.634C279.747 51.5008 279.552 55.3684 279.398 58.247L279.396 58.2906L279.391 58.3319C279.357 58.772 279.288 59.3808 279.032 60.0491C278.782 60.7054 278.433 61.2077 278.167 61.5645C277.024 63.0983 274.849 63.4183 273.31 62.2798C271.825 61.1814 271.475 59.1283 272.477 57.6074C272.625 54.8063 272.824 50.9572 273.073 48.0471C273.32 44.4732 274.315 44.6869 273.678 38.6611C273.555 37.4957 273.466 36.3063 273.4 35.6165C273.319 34.7781 273.254 34.4227 273.206 34.2661C272.957 33.4423 272.81 32.5383 272.712 31.9872C272.591 31.3149 272.511 30.9606 272.424 30.7286C272.293 30.3793 272.179 30.0268 272.097 29.7771C272.006 29.4993 271.942 29.304 271.874 29.1306C271.746 28.8055 271.662 28.6989 271.616 28.6491C271.185 28.1823 270.944 27.963 270.726 27.8284C270.578 27.7371 270.423 27.672 270.13 27.6748C265.035 27.723 264.569 27.9846 264.255 28.1356C263.033 28.7238 262.409 29.0794 261.931 29.5708C260.758 30.7768 260.107 31.2194 258.887 33.0762C258.406 33.808 257.893 34.5086 257.483 35.0639C257.022 35.6892 256.776 36.0183 256.66 36.2011C255.629 37.8125 253.482 38.2865 251.864 37.2603C250.248 36.2339 249.772 34.096 250.801 32.4847C251.081 32.0466 251.538 31.4415 251.89 30.9647C252.293 30.4179 252.708 29.8475 253.077 29.2865C254.767 26.7138 256.119 25.6056 256.945 24.7563C258.377 23.2836 260.051 22.4771 261.236 21.9065C263.186 20.9684 265.266 20.801 270.065 20.7556Z" fill="#D7C9BA"/>
<path d="M316.824 0.201372C317.454 0.215772 318.34 0.316544 319.219 0.753897C320.311 1.29697 323.072 2.71065 324.463 5.51111C324.977 6.5453 326.477 9.1819 327.008 12.5931C327.343 14.7434 328.154 18.9511 328.184 22.5087C328.23 27.9426 328.045 31.9051 327.998 32.8691C327.956 33.712 327.77 34.4472 327.659 34.8775C327.523 35.4109 327.495 35.5282 327.484 35.6271C327.381 36.6427 326.973 40.5257 325.252 46.2237C324.45 48.8805 323.566 50.8211 322.947 52.0585C322.88 52.1912 322.809 52.3209 322.742 52.4528C323.567 53.3874 324.453 54.4038 325.167 55.1879C325.194 55.2069 325.31 55.2895 325.609 55.4516C325.874 55.595 326.01 55.6617 326.382 55.8596C326.609 55.9801 326.867 56.1249 327.142 56.2884C327.159 56.2914 327.178 56.2965 327.199 56.2998C327.459 56.3406 327.854 56.373 328.37 56.3824C329.397 56.4009 330.625 56.322 331.675 56.1875C331.799 56.1715 331.982 56.124 332.443 55.8367C332.756 55.6415 332.877 55.5495 333.327 55.259C333.682 55.0294 334.148 54.74 334.691 54.4864C334.902 54.3876 335.122 54.2493 335.377 54.0599C335.174 53.5398 334.953 52.9586 334.74 52.3244C334.329 51.106 334.101 50.1727 333.927 49.4769C333.748 48.7617 333.658 48.4428 333.525 48.1335C332.898 46.6805 332.569 45.3706 332.282 44.1053C331.983 42.7845 331.775 40.735 331.647 39.9075C331.508 39.0077 331.449 38.0794 331.392 37.3283C331.33 36.5303 331.261 35.7579 331.111 34.8912C330.982 34.1445 330.878 33.2659 330.77 32.4404C330.656 31.5689 330.517 30.5902 330.301 29.4393C330.106 28.4008 329.69 24.8733 330.073 20.1312C330.175 18.8632 330.12 17.8953 330.144 16.4859C330.164 15.3495 330.232 13.6059 331.051 12.0474C331.178 11.8063 331.268 11.5388 331.486 10.9148C331.67 10.3869 331.968 9.53496 332.482 8.69558C333.275 7.40097 334.566 5.60757 336.615 4.38084C336.821 4.25723 337.888 3.54154 338.75 3.16116C339.714 2.73623 341.671 2.12116 343.667 3.29414C344.985 4.06801 345.813 5.3436 345.865 5.41024C346.543 6.27309 347.337 7.33745 348.042 8.3792C348.702 9.3543 349.443 10.5386 349.857 11.5728C350.271 12.6069 350.717 13.6863 351.038 15.0393C351.36 16.4034 351.532 17.933 351.599 20.0212C351.69 22.855 351.768 28.0674 351.643 30.9502C351.591 32.1494 351.611 33.6696 351.479 34.9783C351.325 36.5129 350.968 38.1446 350.195 40.5196C349.144 43.7543 348.433 46.0001 347.888 47.5924C347.343 49.1842 346.885 50.3647 346.293 51.4234C345.492 52.8559 344.564 54.5334 343.495 55.8803C343.749 56.4658 344.076 57.1962 344.512 58.2417C345.292 60.1122 346.533 62.23 347.264 63.6546C347.612 64.334 348.142 64.9737 349.197 66.4745C349.435 66.8128 349.715 67.1153 350.106 67.4879C350.338 67.7089 350.769 68.097 351.183 68.5058L351.583 68.9185L351.636 68.9735L351.687 69.0331C351.948 69.3418 352.181 69.5598 352.446 69.8011C352.561 69.9059 352.769 70.0906 352.95 70.2711C353.016 70.3367 353.09 70.4202 353.175 70.5142C353.184 70.5191 353.193 70.5247 353.203 70.5302C354.872 71.4713 355.459 73.5811 354.514 75.2439C353.57 76.9066 351.452 77.4917 349.784 76.5507C349.644 76.4719 348.844 76.0602 348.224 75.3975L348.01 75.1682L347.961 75.0948C347.92 75.0564 347.86 74.9996 347.763 74.9114C347.457 74.6326 347.001 74.2114 346.486 73.6184L346.008 73.1438C345.828 72.9768 345.613 72.7786 345.306 72.4858C344.774 71.9784 344.123 71.3175 343.509 70.4431C342.831 69.4795 341.72 68.0538 341.079 66.8047C340.62 65.91 339.013 63.0884 338.099 60.8988C338.055 60.7924 338.008 60.6876 337.963 60.5825C337.855 60.6387 337.749 60.7006 337.639 60.7521C337.224 60.946 337.131 61.0741 336.125 61.7013C335.316 62.2053 334.133 62.8499 332.56 63.0516C331.226 63.2227 329.656 63.3248 328.244 63.2992C327.54 63.2865 326.804 63.2415 326.12 63.1342C325.544 63.0437 324.574 62.8506 323.711 62.3042C323.292 62.0395 323.011 61.9208 322.289 61.5293C321.722 61.2217 320.814 60.7055 320.047 59.8649C319.787 59.579 319.507 59.2544 319.212 58.9226C318.944 59.373 318.707 59.7708 318.499 60.0964C317.847 61.1159 316.252 63.5704 313.849 65.3351C309.574 68.4742 305.312 70.0407 303.402 70.5142C301.846 70.8997 300.345 71.2691 298.328 71.4473C296.419 71.6157 294.734 70.2111 294.564 68.3086C294.394 66.4055 295.806 64.7243 297.716 64.5556C299.147 64.4292 300.19 64.1818 301.724 63.8013C302.827 63.528 306.244 62.324 309.727 59.7663C311.002 58.8303 312.015 57.3593 312.643 56.3778C313.132 55.613 313.9 54.2875 314.783 52.6752C314.205 51.6788 313.708 50.7086 313.216 49.6879C312.961 49.1606 311.87 47.4221 311.407 45.3135C311.231 44.5103 310.891 43.5551 310.323 41.8608C310.075 41.1202 309.757 40.4403 309.288 39.3022C308.867 38.2817 308.383 37.0135 308.114 35.6042C308.062 35.3295 307.959 35.0877 307.615 34.0911C307.316 33.2254 306.963 32.1024 306.731 30.6567C306.503 29.2272 306.086 26.7013 306.053 23.6275C306.008 19.4616 306.138 16.1435 306.257 15.1035C306.357 14.2402 306.536 11.4847 307.242 9.42005C307.819 7.73503 308.643 5.96427 309.481 4.60781C310.004 3.762 311.62 0.987935 314.942 0.368735C315.509 0.262933 316.158 0.186211 316.824 0.201372ZM340.191 10.3096C339.562 10.6859 338.983 11.3628 338.41 12.2996C338.328 12.4334 338.236 12.6386 338.046 13.1846C337.889 13.6345 337.62 14.4579 337.202 15.2548C337.222 15.2152 337.107 15.4481 337.087 16.6075C337.071 17.4956 337.119 19.1485 336.995 20.6861C336.66 24.8383 337.05 27.7499 337.128 28.1669C337.377 29.4938 337.533 30.6121 337.655 31.544C337.783 32.5215 337.857 33.1548 337.954 33.7174C338.16 34.9112 338.249 35.943 338.315 36.801C338.385 37.7061 338.423 38.2875 338.511 38.8552C338.762 40.4821 338.813 41.5084 339.056 42.583C339.318 43.7376 339.534 44.5461 339.903 45.4006C340.211 46.1152 340.4 46.7937 340.552 47.3815C340.749 46.9289 340.989 46.3072 341.314 45.3594C341.836 43.8335 342.509 41.7082 343.589 38.3875C344.263 36.3164 344.479 35.1859 344.569 34.2882C344.683 33.1644 344.621 32.5787 344.705 30.6498C344.819 28.0408 344.749 23.0447 344.659 20.2413C344.601 18.4171 344.456 17.3852 344.277 16.6281C344.095 15.8595 343.855 15.2562 343.407 14.1383C343.291 13.8478 342.922 13.191 342.285 12.2492C341.777 11.4995 341.19 10.714 340.655 10.0207C340.518 10.1077 340.356 10.2103 340.191 10.3096ZM316.467 7.12971C316.396 7.13792 316.313 7.1511 316.219 7.16869H316.223C316.206 7.17836 316.154 7.21241 316.071 7.29478C315.879 7.48689 315.685 7.76502 315.395 8.23476C314.856 9.1063 314.242 10.4008 313.814 11.6508C313.65 12.1307 313.516 12.8096 313.407 13.627C313.288 14.5165 313.25 15.0947 313.158 15.8922C313.092 16.4691 312.952 19.4148 312.997 23.5518C313.024 26.0682 313.364 28.1497 313.591 29.5654C313.734 30.4619 313.95 31.1661 314.182 31.8397C314.369 32.3818 314.762 33.393 314.937 34.3112C315.072 35.0166 315.335 35.7646 315.71 36.6749C316.037 37.4678 316.562 38.6362 316.909 39.6714C317.385 41.093 317.911 42.5615 318.191 43.8348C318.257 44.1358 318.351 44.4035 318.462 44.6716C318.508 44.5274 318.557 44.3814 318.602 44.2314C320.154 39.0945 320.498 35.6779 320.574 34.9279C320.65 34.1917 320.85 33.4803 320.931 33.1649C321.038 32.7461 321.058 32.6097 321.062 32.5321C321.106 31.6404 321.286 27.8197 321.242 22.566C321.217 19.6696 320.548 16.2324 320.146 13.6545C319.814 11.5203 318.909 9.92884 318.239 8.57866C318.134 8.36776 317.909 8.08783 317.489 7.76477C317.175 7.52404 316.823 7.31939 316.467 7.12971Z" fill="#D7C9BA"/>
<path d="M364.85 24.5956C366.604 23.0862 370.862 19.9565 376.523 22.2572C380.074 23.7003 382.829 26.2747 383.983 27.4248C385.339 28.7756 385.339 30.9662 383.983 32.3172C382.627 33.6683 380.429 33.6683 379.073 32.3172C378.073 31.3213 376.122 29.5679 373.9 28.6651C371.837 27.827 370.389 28.948 368.923 30.247C368.906 30.2808 368.872 30.3516 368.831 30.4785C368.776 30.6484 368.721 30.8712 368.654 31.1893C368.578 31.5466 368.527 31.8248 368.431 32.3012C368.399 32.4569 368.398 32.6277 368.594 33.0027C368.852 33.4947 369.23 33.9458 369.894 34.7658C371.212 36.3917 372.416 37.6061 373.548 38.8375C374.587 39.9666 375.577 41.15 376.542 42.5149C377.416 43.7525 378.756 45.3764 380.557 48.721C381.201 49.9166 381.35 51.2697 381.404 52.2402C381.462 53.2972 381.425 54.4878 381.381 55.6219C381.299 57.7234 380.266 59.226 379.259 60.2002C378.356 61.074 377.238 61.7238 376.848 61.9725C375.957 62.5404 374.943 62.7862 374.186 62.9124C373.351 63.0515 372.44 63.1065 371.526 63.0958C369.702 63.0745 367.591 62.7923 365.612 62.1971C363.136 61.4523 361.624 60.4977 360.145 59.0883C358.349 57.3777 356.966 54.9403 356.274 52.9395L356.242 52.8524L356.217 52.7629C356.104 52.3689 355.938 51.8264 355.867 50.7913C355.811 49.9708 355.812 48.7543 355.812 47.71C355.812 45.7993 357.366 44.2504 359.284 44.2504C361.202 44.2504 362.756 45.7993 362.756 47.71C362.756 48.8702 362.76 49.7935 362.795 50.319C362.81 50.5303 362.826 50.6089 362.828 50.6193C362.833 50.6448 362.833 50.645 362.867 50.7615C363.279 51.9113 364.11 53.2952 364.942 54.0881C365.635 54.7485 366.195 55.1447 367.621 55.5737C368.921 55.9648 370.377 56.1622 371.606 56.1767C372.217 56.1838 372.704 56.1454 373.04 56.0895C373.146 56.0717 373.221 56.0509 373.267 56.0391C373.539 55.8676 373.718 55.7607 373.942 55.6081C374.176 55.4486 374.326 55.3298 374.423 55.2367C374.432 55.2276 374.438 55.2169 374.446 55.2092C374.487 54.1182 374.507 53.2802 374.471 52.6208C374.452 52.2865 374.422 52.0666 374.395 51.9353C374.392 51.9187 374.386 51.9054 374.383 51.894C372.871 49.1001 371.905 47.974 370.863 46.4995C370.105 45.4267 369.313 44.4737 368.428 43.5122C367.483 42.4845 365.989 40.9615 364.489 39.1103C363.669 38.0982 360.788 35.0879 361.622 30.9417C361.747 30.3212 361.927 29.2687 362.223 28.3556C362.549 27.3466 363.117 26.1347 364.257 25.1229L364.85 24.5956Z" fill="#D7C9BA"/>
</svg>
